# xmcd
#
# Track frame offsets:
#	183
#	14368
#	27605
#	42803
#	57455
#	71438
#	85580
#	101060
#	115768
#	128503
#	140750
#	154315
#	168450
#	182883
#	196745
#	210845
#
# Disc length: 3007 seconds
#
# Revision: 1
# Processed by: cddbd v1.5.2PL0 Copyright (c) Steve Scherf et al.
# Submitted via: audiograbber 1.83.01
#
DISCID=d80bbd10
DTITLE=Charlie Patton - Delta Blues
DYEAR=1900
DGENRE=
TTITLE0=Shake It And Break It But (Don't Let It Fall Mama)
TTITLE1=Down The Dirt Road Blues
TTITLE2=Dry Well Blues
TTITLE3=A Spoonful Blues
TTITLE4=High Water Everywhere Pt 1
TTITLE5=High Water Everywhere Pt 2
TTITLE6=It Won't Be Long
TTITLE7=Bird Nest Bound
TTITLE8=Yellow Bee
TTITLE9=Revenue Man Blues
TTITLE10=Pony Blues
TTITLE11=When Your Way Gets Dark
TTITLE12=Come Back Corinna
TTITLE13=Banty Rooster Blues
TTITLE14=Tom Rushen
TTITLE15=Hammer Blues
EXTD=
EXTT0=
EXTT1=
EXTT2=
EXTT3=
EXTT4=
EXTT5=
EXTT6=
EXTT7=
EXTT8=
EXTT9=
EXTT10=
EXTT11=
EXTT12=
EXTT13=
EXTT14=
EXTT15=
PLAYORDER=
